<svg xmlns="http://www.w3.org/2000/svg" viewBox="0 0 276.23 274.6"><defs><style>.cls-1{fill:#fff;}</style></defs><title>Fichier 15</title><g id="Calque_2" data-name="Calque 2"><g id="Calque_1-2" data-name="Calque 1"><g id="_9PRAbZ.tif" data-name="9PRAbZ.tif"><path class="cls-1" d="M29.69,137.25c1.79,1.72,3.19,3.07,4.6,4.41,3.08,2.93,6.18,5.84,9.26,8.77l24.22,23.14c3.34,3.18,6.69,6.33,10,9.51l24,22.95c3.14,3,6.31,6,9.45,9q12,11.46,24,22.94,10.38,9.9,20.81,19.77c.64.6,1.41,1.08,2.33,1.79L144.09,274.6c-.64-.51-1.07-.81-1.45-1.17L126,257.4q-6.9-6.64-13.81-13.25c-3.65-3.49-7.32-7-11-10.45l-23.09-22L56.53,191.16q-11.36-10.82-22.71-21.64c-3.2-3.05-6.43-6.09-9.64-9.14q-11-10.44-21.94-20.9c-.69-.66-1.33-1.37-2.24-2.32,2.82-2.72,5.47-5.28,8.14-7.84.45-.43,1-.77,1.42-1.2q7.86-7.55,15.72-15.11,13.42-12.89,26.88-25.75,11-10.56,22.13-21.08L96.81,44.73l22.13-21.09Q130.21,12.91,141.47,2.2c.76-.73,1.63-1.35,2.67-2.2l14,14.64a5.31,5.31,0,0,1-.69,1.1c-2.37,2.26-4.79,4.48-7.16,6.74q-13,12.39-25.93,24.81Q113.54,57.66,102.65,68L80.13,89.45Q69.83,99.25,59.51,109q-12.32,11.74-24.61,23.5C33.31,134.05,31.65,135.48,29.69,137.25Z"/><path class="cls-1" d="M158.5,126.24H276.23v20l-.18.19c-.07.06-.13.15-.2.16a16.37,16.37,0,0,1-1.84.18q-57.31,0-114.62-.05a3.37,3.37,0,0,1-.89-.31Z"/></g></g></g></svg>